<?xml version="1.0" encoding="UTF-8" standalone="no"?>
<!-- Created with Inkscape (http://www.inkscape.org/) -->

<svg
   xmlns:dc="http://purl.org/dc/elements/1.1/"
   xmlns:cc="http://creativecommons.org/ns#"
   xmlns:rdf="http://www.w3.org/1999/02/22-rdf-syntax-ns#"
   xmlns:svg="http://www.w3.org/2000/svg"
   xmlns="http://www.w3.org/2000/svg"
   xmlns:sodipodi="http://sodipodi.sourceforge.net/DTD/sodipodi-0.dtd"
   xmlns:inkscape="http://www.inkscape.org/namespaces/inkscape"
   id="svg2"
   version="1.1"
   inkscape:version="0.48.5 r10040"
   width="1496.9966"
   height="935.62286"
   xml:space="preserve"
   sodipodi:docname="Final_Dollero03.pdf"
   inkscape:export-filename="/home/tank/Dropbox/web/frank3me/img/designs/Dollero03.png"
   inkscape:export-xdpi="60.119999"
   inkscape:export-ydpi="60.119999"><metadata
     id="metadata8"><rdf:RDF><cc:Work
         rdf:about=""><dc:format>image/svg+xml</dc:format><dc:type
           rdf:resource="http://purl.org/dc/dcmitype/StillImage" /><dc:title></dc:title></cc:Work></rdf:RDF></metadata><defs
     id="defs6" /><sodipodi:namedview
     pagecolor="#ffffff"
     bordercolor="#666666"
     borderopacity="1"
     objecttolerance="10"
     gridtolerance="10"
     guidetolerance="10"
     inkscape:pageopacity="0"
     inkscape:pageshadow="2"
     inkscape:window-width="1703"
     inkscape:window-height="976"
     id="namedview4"
     showgrid="false"
     fit-margin-top="0"
     fit-margin-left="0"
     fit-margin-right="0"
     fit-margin-bottom="0"
     inkscape:zoom="0.625804"
     inkscape:cx="701.48197"
     inkscape:cy="438.39154"
     inkscape:window-x="0"
     inkscape:window-y="28"
     inkscape:window-maximized="0"
     inkscape:current-layer="g10" /><g
     id="g10"
     inkscape:groupmode="layer"
     inkscape:label="Final_Dollero03"
     transform="matrix(1.25,0,0,-1.25,-2.5392045,1463.7774)"><g
       id="g12"
       transform="matrix(2.0791619,0,0,2.0791619,2.0313692,422.52363)"><path
         d="M 0,0 576,0 576,360 0,360 0,0 z"
         style="fill:#131313;fill-opacity:1;fill-rule:nonzero;stroke:none"
         id="path14"
         inkscape:connector-curvature="0" /><path
         d="m 112.223,225.895 c 1.55,1.21 3.668,2.07 6.336,2.582 1.554,0.339 2.718,0.503 3.507,0.503 0.196,0 0.368,-0.007 0.508,-0.05 l 0,-72.696 -10.351,0 0,4.207 c -3.957,-2.796 -8.317,-4.207 -13.098,-4.207 -6.484,0 -12.016,2.434 -16.578,7.309 -4.606,4.863 -6.91,10.738 -6.91,17.598 0,6.906 2.304,12.785 6.91,17.656 4.558,4.836 10.094,7.25 16.578,7.25 4.781,0 9.141,-1.399 13.098,-4.207 l 0,24.055 z M 99.125,166.637 c 3.59,0 6.672,1.425 9.234,4.254 2.579,2.839 3.864,6.254 3.864,10.246 0,4.027 -1.285,7.461 -3.864,10.301 -2.562,2.855 -5.644,4.261 -9.234,4.261 -3.617,0 -6.711,-1.406 -9.273,-4.261 -2.547,-2.84 -3.817,-6.274 -3.817,-10.301 0,-3.989 1.27,-7.407 3.817,-10.246 2.562,-2.829 5.656,-4.254 9.273,-4.254 z"
         style="fill:#f1f1f1;fill-opacity:1;fill-rule:nonzero;stroke:none"
         id="path16"
         inkscape:connector-curvature="0" /><path
         d="m 178.207,206.047 c 6.453,0 11.981,-2.418 16.582,-7.25 4.566,-4.871 6.848,-10.754 6.848,-17.656 0,-6.864 -2.282,-12.735 -6.848,-17.598 -4.601,-4.879 -10.129,-7.309 -16.582,-7.309 -6.5,0 -12.039,2.43 -16.645,7.309 -4.562,4.863 -6.843,10.734 -6.843,17.598 0,6.902 2.281,12.785 6.843,17.656 4.606,4.832 10.145,7.25 16.645,7.25 z m 0,-39.41 c 3.582,0 6.656,1.425 9.231,4.254 2.57,2.839 3.855,6.254 3.855,10.246 0,4.027 -1.285,7.461 -3.855,10.301 -2.575,2.855 -5.649,4.261 -9.231,4.261 -3.625,0 -6.715,-1.406 -9.293,-4.261 -2.535,-2.84 -3.801,-6.274 -3.801,-10.301 0,-3.989 1.266,-7.407 3.801,-10.246 2.578,-2.829 5.668,-4.254 9.293,-4.254 z"
         style="fill:#f1f1f1;fill-opacity:1;fill-rule:nonzero;stroke:none"
         id="path18"
         inkscape:connector-curvature="0" /><path
         d="m 369.062,181.137 c 0,-1.344 -0.105,-2.739 -0.312,-4.157 l -35.719,0 c 0.817,-3.007 2.348,-5.457 4.617,-7.351 2.297,-1.93 4.93,-2.93 7.914,-2.988 0.704,-0.082 1.387,-0.098 2.032,-0.098 1.523,0 2.851,0.156 4.008,0.508 0.914,0.258 1.964,0.676 3.14,1.258 3.594,-1.332 6.305,-3.684 8.113,-7.106 l -0.554,-0.406 -0.137,-0.094 -1.629,-1.019 c -0.094,-0.051 -0.223,-0.141 -0.355,-0.192 -0.313,-0.215 -0.696,-0.441 -1.164,-0.668 -0.211,-0.101 -0.356,-0.199 -0.454,-0.25 -0.078,-0.047 -0.312,-0.14 -0.718,-0.312 -0.297,-0.141 -0.766,-0.324 -1.41,-0.559 -0.317,-0.129 -0.649,-0.246 -1.02,-0.355 -0.316,-0.106 -0.73,-0.211 -1.269,-0.348 -0.235,-0.078 -0.426,-0.125 -0.567,-0.168 l -0.191,-0.043 c -0.172,-0.043 -0.321,-0.059 -0.461,-0.105 -0.129,-0.032 -0.227,-0.043 -0.262,-0.043 -0.137,-0.043 -0.293,-0.079 -0.504,-0.106 -0.234,-0.035 -0.426,-0.043 -0.555,-0.043 -0.375,-0.078 -0.793,-0.129 -1.261,-0.164 -0.449,-0.023 -0.809,-0.058 -1.059,-0.094 l -3.719,0 c -8.019,0 -14.347,3.461 -19.027,10.407 -2.129,3.101 -3.5,6.55 -4.101,10.343 -0.2,1.414 -0.297,2.809 -0.297,4.157 0,1.355 0.097,2.746 0.297,4.164 0.949,5.918 3.582,10.859 7.91,14.812 4.394,3.957 9.461,5.93 15.218,5.93 1.426,0 2.86,-0.129 4.317,-0.399 4.836,-0.957 8.984,-3.281 12.422,-7 3.492,-3.753 5.648,-8.207 6.449,-13.343 0.203,-1.418 0.308,-2.809 0.308,-4.168 z m -10.917,4.164 c -1.383,5.219 -4.438,8.504 -9.176,9.894 -1.098,0.34 -2.219,0.504 -3.407,0.504 -2.906,0 -5.531,-0.972 -7.871,-2.945 -2.285,-1.922 -3.843,-4.41 -4.66,-7.453 l 25.114,0 z"
         style="fill:#f1f1f1;fill-opacity:1;fill-rule:nonzero;stroke:none"
         id="path20"
         inkscape:connector-curvature="0" /><path
         d="m 426.715,206.098 c 0.039,-0.207 0.055,-0.434 0.055,-0.703 0,-0.782 -0.149,-1.915 -0.461,-3.399 -0.504,-2.609 -1.375,-4.703 -2.582,-6.293 -0.137,-0.027 -0.243,-0.047 -0.313,-0.047 -0.027,-0.035 -0.062,-0.051 -0.094,-0.051 -0.281,0 -0.531,-0.035 -0.812,-0.105 -0.442,-0.102 -0.762,-0.164 -0.961,-0.199 -0.645,-0.199 -1.317,-0.461 -1.973,-0.766 -0.179,-0.058 -0.359,-0.148 -0.515,-0.242 -0.211,-0.113 -0.418,-0.227 -0.668,-0.367 -0.239,-0.137 -0.473,-0.285 -0.707,-0.461 -0.329,-0.231 -0.676,-0.485 -1.008,-0.754 -0.246,-0.207 -0.481,-0.426 -0.703,-0.652 -0.254,-0.278 -0.489,-0.547 -0.723,-0.825 -0.277,-0.261 -0.512,-0.531 -0.707,-0.808 -0.172,-0.27 -0.285,-0.453 -0.363,-0.551 -0.133,-0.172 -0.242,-0.355 -0.356,-0.563 -0.328,-0.507 -0.652,-1.121 -0.965,-1.835 -0.121,-0.293 -0.242,-0.602 -0.339,-0.907 -0.141,-0.371 -0.278,-0.797 -0.418,-1.265 -0.051,-0.297 -0.129,-0.621 -0.192,-0.914 l 0,-0.102 c -0.137,-0.508 -0.226,-1.047 -0.262,-1.625 l 0,-0.055 c -0.039,-0.199 -0.05,-0.382 -0.05,-0.558 -0.036,-0.363 -0.051,-0.66 -0.051,-0.86 l 0,-24.957 -10.356,0 0,46.821 c 1.567,1.218 3.68,2.086 6.356,2.593 1.555,0.329 2.715,0.512 3.496,0.512 0.199,0 0.371,-0.027 0.504,-0.062 l 0,-4.258 c 0.781,0.547 1.519,1.023 2.234,1.426 0.504,0.269 1.008,0.519 1.512,0.757 0.828,0.372 1.609,0.692 2.391,0.961 0.375,0.098 0.929,0.254 1.671,0.465 0.114,0.024 0.258,0.067 0.457,0.094 0.176,0.035 0.305,0.07 0.411,0.105 0.504,0.094 1.101,0.188 1.781,0.243 0.906,0.148 1.793,0.207 2.637,0.207 l 2.074,0 z"
         style="fill:#f1f1f1;fill-opacity:1;fill-rule:nonzero;stroke:none"
         id="path22"
         inkscape:connector-curvature="0" /><path
         d="m 476.918,206.047 c 6.477,0 12.008,-2.418 16.586,-7.25 4.562,-4.871 6.859,-10.754 6.859,-17.656 0,-6.864 -2.297,-12.735 -6.859,-17.598 -4.578,-4.879 -10.109,-7.309 -16.586,-7.309 -6.48,0 -12.031,2.43 -16.641,7.309 -4.566,4.863 -6.832,10.734 -6.832,17.598 0,6.902 2.266,12.785 6.832,17.656 4.61,4.832 10.164,7.25 16.641,7.25 z m 0,-39.41 c 3.59,0 6.668,1.425 9.242,4.254 2.57,2.839 3.84,6.254 3.84,10.246 0,4.027 -1.27,7.461 -3.84,10.301 -2.574,2.855 -5.652,4.261 -9.242,4.261 -3.609,0 -6.703,-1.406 -9.277,-4.261 -2.539,-2.84 -3.809,-6.274 -3.809,-10.301 0,-3.989 1.27,-7.407 3.809,-10.246 2.574,-2.829 5.668,-4.254 9.277,-4.254 z"
         style="fill:#f1f1f1;fill-opacity:1;fill-rule:nonzero;stroke:none"
         id="path24"
         inkscape:connector-curvature="0" /><path
         d="m 244.391,156.234 -10.403,0 0,69.661 c 1.559,1.21 3.672,2.07 6.34,2.582 1.559,0.339 2.738,0.503 3.547,0.503 0.211,0 0.375,-0.007 0.516,-0.05 l 0,-72.696 z"
         style="fill:#285786;fill-opacity:1;fill-rule:nonzero;stroke:none"
         id="path26"
         inkscape:connector-curvature="0" /><path
         d="m 289.781,156.234 -10.398,0 0,69.661 c 1.555,1.21 3.668,2.07 6.324,2.582 1.559,0.339 2.75,0.503 3.566,0.503 0.2,0 0.375,-0.007 0.508,-0.05 l 0,-72.696 z"
         style="fill:#285786;fill-opacity:1;fill-rule:nonzero;stroke:none"
         id="path28"
         inkscape:connector-curvature="0" /><path
         d="m 200.074,144.523 c 6.723,-24.859 23.86,-40.261 49.289,-45.496 28.36,-5.843 65.125,4.485 73.75,34.825 0.028,0.082 0.149,0.878 0.153,0.968 -0.434,3.328 -2.684,5.582 -5.055,7.809 -0.082,-0.277 -0.168,-0.559 -0.254,-0.828 -6.824,-21.731 -27.605,-31.809 -49.102,-34.321 -13.058,-1.515 -30.933,0.762 -44.871,7.969 -0.476,0.242 -2.695,1.68 -3.164,1.938 -5.972,3.957 -8.101,6.324 -11.566,10.34 -0.309,0.398 -0.602,0.804 -0.895,1.23 -0.578,0.848 -1.136,1.731 -1.668,2.68 -0.265,0.461 -0.519,0.922 -0.765,1.375 -1.227,2.261 -2.199,4.297 -2.711,5.66 -0.16,0.433 -0.32,0.851 -0.473,1.269 -0.449,1.254 -0.859,2.426 -1.301,3.61 -0.144,0.441 -0.308,0.894 -0.468,1.34 -0.282,0.781 -0.602,0.652 -0.817,0.367 0,-0.004 -0.183,-0.223 -0.082,-0.735 z"
         style="fill:#285786;fill-opacity:1;fill-rule:nonzero;stroke:none"
         id="path30"
         inkscape:connector-curvature="0" /></g></g></svg>